<mxfile host="app.diagrams.net" modified="2021-08-24T06:39:23.049Z" agent="5.0 (X11; Linux x86_64) AppleWebKit/537.36 (KHTML, like Gecko) Chrome/92.0.4515.131 Safari/537.36" etag="1qlC6lBaBcZiWrbfy6Gx" version="14.9.8" type="github">
  <diagram id="mT7NVEQJp89UWrkwp7Li" name="第 1 页">
    <mxGraphModel dx="1673" dy="1038" grid="1" gridSize="10" guides="1" tooltips="1" connect="1" arrows="1" fold="1" page="1" pageScale="1" pageWidth="827" pageHeight="1169" math="0" shadow="0">
      <root>
        <mxCell id="0" />
        <mxCell id="1" parent="0" />
        <mxCell id="S-KS8Klz8F3gYqasTz4s-2" value="" style="rounded=1;whiteSpace=wrap;html=1;dashed=1;opacity=40;" vertex="1" parent="1">
          <mxGeometry x="120" y="490" width="300" height="320" as="geometry" />
        </mxCell>
        <mxCell id="S-KS8Klz8F3gYqasTz4s-13" value="" style="edgeStyle=orthogonalEdgeStyle;rounded=0;orthogonalLoop=1;jettySize=auto;html=1;entryX=0.5;entryY=0;entryDx=0;entryDy=0;" edge="1" parent="1" source="S-KS8Klz8F3gYqasTz4s-1" target="S-KS8Klz8F3gYqasTz4s-16">
          <mxGeometry relative="1" as="geometry">
            <mxPoint x="270" y="510" as="targetPoint" />
          </mxGeometry>
        </mxCell>
        <mxCell id="S-KS8Klz8F3gYqasTz4s-1" value="ComingChat" style="rounded=1;whiteSpace=wrap;html=1;" vertex="1" parent="1">
          <mxGeometry x="210" y="340" width="120" height="60" as="geometry" />
        </mxCell>
        <mxCell id="S-KS8Klz8F3gYqasTz4s-12" value="" style="edgeStyle=orthogonalEdgeStyle;rounded=0;orthogonalLoop=1;jettySize=auto;html=1;exitX=0.5;exitY=1;exitDx=0;exitDy=0;" edge="1" parent="1" source="S-KS8Klz8F3gYqasTz4s-17" target="S-KS8Klz8F3gYqasTz4s-11">
          <mxGeometry relative="1" as="geometry" />
        </mxCell>
        <mxCell id="S-KS8Klz8F3gYqasTz4s-4" value="Substrate Module" style="rounded=1;whiteSpace=wrap;html=1;" vertex="1" parent="1">
          <mxGeometry x="540" y="340" width="120" height="60" as="geometry" />
        </mxCell>
        <mxCell id="S-KS8Klz8F3gYqasTz4s-11" value="Agg Key/Sig" style="rounded=1;whiteSpace=wrap;html=1;" vertex="1" parent="1">
          <mxGeometry x="240" y="680" width="60" height="60" as="geometry" />
        </mxCell>
        <mxCell id="S-KS8Klz8F3gYqasTz4s-18" value="" style="edgeStyle=orthogonalEdgeStyle;rounded=0;orthogonalLoop=1;jettySize=auto;html=1;" edge="1" parent="1" source="S-KS8Klz8F3gYqasTz4s-16" target="S-KS8Klz8F3gYqasTz4s-17">
          <mxGeometry relative="1" as="geometry" />
        </mxCell>
        <mxCell id="S-KS8Klz8F3gYqasTz4s-16" value="Signer set(m / n)" style="rounded=1;whiteSpace=wrap;html=1;" vertex="1" parent="1">
          <mxGeometry x="210" y="510" width="120" height="60" as="geometry" />
        </mxCell>
        <mxCell id="S-KS8Klz8F3gYqasTz4s-17" value="MAST(C^m_n)" style="whiteSpace=wrap;html=1;rounded=1;" vertex="1" parent="1">
          <mxGeometry x="210" y="590" width="120" height="60" as="geometry" />
        </mxCell>
        <mxCell id="S-KS8Klz8F3gYqasTz4s-19" value="" style="shape=actor;whiteSpace=wrap;html=1;" vertex="1" parent="1">
          <mxGeometry x="70" y="340" width="40" height="60" as="geometry" />
        </mxCell>
        <mxCell id="S-KS8Klz8F3gYqasTz4s-20" value="" style="shape=actor;whiteSpace=wrap;html=1;" vertex="1" parent="1">
          <mxGeometry x="230" y="190" width="40" height="60" as="geometry" />
        </mxCell>
        <mxCell id="S-KS8Klz8F3gYqasTz4s-21" value="" style="shape=actor;whiteSpace=wrap;html=1;" vertex="1" parent="1">
          <mxGeometry x="250" y="190" width="40" height="60" as="geometry" />
        </mxCell>
        <mxCell id="S-KS8Klz8F3gYqasTz4s-22" value="" style="shape=actor;whiteSpace=wrap;html=1;" vertex="1" parent="1">
          <mxGeometry x="270" y="190" width="40" height="60" as="geometry" />
        </mxCell>
      </root>
    </mxGraphModel>
  </diagram>
</mxfile>
